<svg xmlns="http://www.w3.org/2000/svg" width="40.187" height="30.14" viewBox="0 0 40.187 30.14">
  <g id="_012-burrito" data-name="012-burrito" transform="translate(-15.892 -79.806)">
    <g id="Group_248" data-name="Group 248" transform="translate(15.762 93.783)">
      <g id="Group_230" data-name="Group 230" transform="translate(0.13 0.088)">
        <path id="Path_1009" data-name="Path 1009" d="M48.149,248H24.037a8.037,8.037,0,0,0,0,16.075H48.149a8.037,8.037,0,0,0,0-16.075Z" transform="translate(-16 -248)" fill="#f0915a"/>
      </g>
      <g id="Group_231" data-name="Group 231" transform="translate(0 0)">
        <circle id="Ellipse_48" data-name="Ellipse 48" cx="8" cy="8" r="8" transform="translate(0.277 0.093)" fill="#f0915a"/>
      </g>
      <g id="Group_237" data-name="Group 237" transform="translate(1.47 1.428)">
        <g id="Group_232" data-name="Group 232" transform="translate(1.861)">
          <path id="Path_1010" data-name="Path 1010" d="M56.836,267.349c1.116,0,1.116-1.34,2.232-1.34s1.116,1.34,2.233,1.34,1.116-1.34,2.233-1.34a1.153,1.153,0,0,1,.372.058,6.692,6.692,0,0,0-9.673,0,1.151,1.151,0,0,1,.371-.058C55.719,266.009,55.719,267.349,56.836,267.349Z" transform="translate(-54.232 -264)" fill="#a55023"/>
        </g>
        <g id="Group_233" data-name="Group 233" transform="translate(1.339 10.716)">
          <path id="Path_1011" data-name="Path 1011" d="M53.357,394.679A6.687,6.687,0,0,0,58.716,392H48A6.687,6.687,0,0,0,53.357,394.679Z" transform="translate(-47.999 -392)" fill="#5faa46"/>
        </g>
        <g id="Group_234" data-name="Group 234" transform="translate(0 2.009)">
          <path id="Path_1012" data-name="Path 1012" d="M43.535,288.058a1.153,1.153,0,0,0-.372-.058c-1.116,0-1.116,1.34-2.233,1.34S39.814,288,38.7,288s-1.116,1.34-2.232,1.34S35.349,288,34.232,288a1.152,1.152,0,0,0-.371.058A6.674,6.674,0,0,0,32,292.688q0,.34.034.671c1.082.027,1.094,1.338,2.2,1.338s1.116-1.34,2.232-1.34,1.116,1.34,2.232,1.34,1.116-1.34,2.233-1.34,1.116,1.34,2.233,1.34,1.117-1.311,2.2-1.338c.022-.221.034-.445.034-.671A6.674,6.674,0,0,0,43.535,288.058Z" transform="translate(-32 -288)" fill="#fabe19"/>
        </g>
        <g id="Group_235" data-name="Group 235" transform="translate(0.033 7.368)">
          <path id="Path_1013" data-name="Path 1013" d="M43.529,353.34c-1.116,0-1.116-1.34-2.233-1.34s-1.116,1.34-2.233,1.34S37.948,352,36.831,352s-1.116,1.34-2.232,1.34-1.117-1.311-2.2-1.338a6.662,6.662,0,0,0,1.306,3.348H44.423A6.663,6.663,0,0,0,45.729,352C44.646,352.028,44.634,353.34,43.529,353.34Z" transform="translate(-32.4 -352)" fill="#a55023"/>
        </g>
        <g id="Group_236" data-name="Group 236" transform="translate(1.339 10.716)">
          <path id="Path_1014" data-name="Path 1014" d="M49.338,393.34h8.038A6.739,6.739,0,0,0,58.716,392H48A6.739,6.739,0,0,0,49.338,393.34Z" transform="translate(-47.999 -392)" fill="#91c83c"/>
        </g>
      </g>
      <g id="Group_238" data-name="Group 238" transform="translate(8.167 0.088)">
        <path id="Path_1015" data-name="Path 1015" d="M138.791,261.4H125.4a5.358,5.358,0,0,1-5.358-5.358A8.037,8.037,0,0,0,112,248h24.112a8.037,8.037,0,0,1,8.037,8.037A5.358,5.358,0,0,1,138.791,261.4Z" transform="translate(-112 -248)" fill="#f0915a"/>
      </g>
      <g id="Group_239" data-name="Group 239" transform="translate(8.199 5.466)">
        <circle id="Ellipse_49" data-name="Ellipse 49" cx="0.5" cy="0.5" r="0.5" transform="translate(0.079 -0.373)" fill="#f5871e"/>
      </g>
      <g id="Group_240" data-name="Group 240" transform="translate(5.042 9.912)">
        <circle id="Ellipse_50" data-name="Ellipse 50" cx="0.446" cy="0.446" r="0.446" fill="#d26e28"/>
      </g>
      <g id="Group_241" data-name="Group 241" transform="translate(9.507 2.768)">
        <circle id="Ellipse_51" data-name="Ellipse 51" cx="0.446" cy="0.446" r="0.446" fill="#d26e28"/>
      </g>
      <g id="Group_242" data-name="Group 242" transform="translate(11.293 10.805)">
        <circle id="Ellipse_52" data-name="Ellipse 52" cx="0.446" cy="0.446" r="0.446" fill="#d26e28"/>
      </g>
      <g id="Group_243" data-name="Group 243" transform="translate(4.373 6.559)">
        <ellipse id="Ellipse_53" data-name="Ellipse 53" cx="0.5" cy="1" rx="0.5" ry="1" transform="translate(-0.095 -0.466)" fill="#f5871e"/>
      </g>
      <g id="Group_244" data-name="Group 244" transform="translate(12.025 6.012)">
        <circle id="Ellipse_54" data-name="Ellipse 54" cx="1" cy="1" r="1" transform="translate(0.253 0.081)" fill="#f5871e"/>
      </g>
      <g id="Group_245" data-name="Group 245" transform="translate(22.903 3.884)">
        <circle id="Ellipse_55" data-name="Ellipse 55" cx="0.781" cy="0.781" r="0.781" fill="#f0915a"/>
      </g>
      <g id="Group_246" data-name="Group 246" transform="translate(20.224 10.805)">
        <circle id="Ellipse_56" data-name="Ellipse 56" cx="0.781" cy="0.781" r="0.781" fill="#f0915a"/>
      </g>
      <g id="Group_247" data-name="Group 247" transform="translate(14.758 2.186)">
        <circle id="Ellipse_57" data-name="Ellipse 57" cx="0.5" cy="0.5" r="0.5" transform="translate(-0.48 -0.093)" fill="#f0915a"/>
      </g>
    </g>
    <g id="Group_267" data-name="Group 267" transform="translate(22.321 79.571)">
      <g id="Group_249" data-name="Group 249" transform="translate(0.269 0.234)">
        <path id="Path_1016" data-name="Path 1016" d="M113.414,80h-9.377a8.037,8.037,0,1,0,0,16.075h9.377a8.037,8.037,0,0,0,0-16.075Z" transform="translate(-96 -80)" fill="#f0915a"/>
      </g>
      <g id="Group_250" data-name="Group 250" transform="translate(0 0)">
        <ellipse id="Ellipse_58" data-name="Ellipse 58" cx="8.5" cy="8" rx="8.5" ry="8" transform="translate(-0.281 0.304)" fill="#fab991"/>
      </g>
      <g id="Group_256" data-name="Group 256" transform="translate(1.609 1.574)">
        <g id="Group_251" data-name="Group 251" transform="translate(1.861)">
          <path id="Path_1017" data-name="Path 1017" d="M136.836,99.349c1.116,0,1.116-1.34,2.232-1.34s1.116,1.34,2.233,1.34,1.116-1.34,2.233-1.34a1.153,1.153,0,0,1,.372.058,6.692,6.692,0,0,0-9.673,0,1.151,1.151,0,0,1,.371-.058C135.719,98.009,135.719,99.349,136.836,99.349Z" transform="translate(-134.232 -96)" fill="#a55023"/>
        </g>
        <g id="Group_252" data-name="Group 252" transform="translate(1.339 10.716)">
          <path id="Path_1018" data-name="Path 1018" d="M133.357,226.679A6.687,6.687,0,0,0,138.716,224H128A6.687,6.687,0,0,0,133.357,226.679Z" transform="translate(-127.999 -224)" fill="#5faa46"/>
        </g>
        <g id="Group_253" data-name="Group 253" transform="translate(0 2.009)">
          <path id="Path_1019" data-name="Path 1019" d="M123.535,120.058a1.153,1.153,0,0,0-.372-.058c-1.116,0-1.116,1.34-2.233,1.34S119.814,120,118.7,120s-1.116,1.34-2.232,1.34-1.116-1.34-2.232-1.34a1.151,1.151,0,0,0-.371.058A6.673,6.673,0,0,0,112,124.688q0,.34.034.671c1.082.027,1.094,1.338,2.2,1.338s1.116-1.34,2.232-1.34,1.116,1.34,2.232,1.34,1.116-1.34,2.233-1.34,1.116,1.34,2.233,1.34,1.117-1.311,2.2-1.338c.022-.221.034-.445.034-.671a6.674,6.674,0,0,0-1.861-4.631Z" transform="translate(-112 -120)" fill="#fabe19"/>
        </g>
        <g id="Group_254" data-name="Group 254" transform="translate(0.033 7.368)">
          <path id="Path_1020" data-name="Path 1020" d="M123.529,185.34c-1.116,0-1.116-1.34-2.233-1.34s-1.116,1.34-2.233,1.34-1.116-1.34-2.232-1.34-1.116,1.34-2.232,1.34-1.117-1.311-2.2-1.338a6.662,6.662,0,0,0,1.306,3.348h10.717A6.663,6.663,0,0,0,125.729,184C124.646,184.028,124.634,185.34,123.529,185.34Z" transform="translate(-112.4 -184)" fill="#a55023"/>
        </g>
        <g id="Group_255" data-name="Group 255" transform="translate(1.339 10.716)">
          <path id="Path_1021" data-name="Path 1021" d="M129.338,225.34h8.038a6.74,6.74,0,0,0,1.339-1.34H128A6.74,6.74,0,0,0,129.338,225.34Z" transform="translate(-127.999 -224)" fill="#91c83c"/>
        </g>
      </g>
      <g id="Group_257" data-name="Group 257" transform="translate(8.306 0.234)">
        <path id="Path_1022" data-name="Path 1022" d="M206.735,90.716h-4.019a2.679,2.679,0,0,1-2.679-2.679A8.037,8.037,0,0,0,192,80h9.377a8.037,8.037,0,0,1,8.037,8.037A2.679,2.679,0,0,1,206.735,90.716Z" transform="translate(-192 -80)" fill="#fab991"/>
      </g>
      <g id="Group_258" data-name="Group 258" transform="translate(8.199 5.466)">
        <circle id="Ellipse_59" data-name="Ellipse 59" cx="1" cy="1" r="1" transform="translate(-0.48 -0.162)" fill="#f5871e"/>
      </g>
      <g id="Group_259" data-name="Group 259" transform="translate(5.181 10.058)">
        <circle id="Ellipse_60" data-name="Ellipse 60" cx="0.446" cy="0.446" r="0.446" fill="#d26e28"/>
      </g>
      <g id="Group_260" data-name="Group 260" transform="translate(9.646 2.913)">
        <circle id="Ellipse_61" data-name="Ellipse 61" cx="0.446" cy="0.446" r="0.446" fill="#d26e28"/>
      </g>
      <g id="Group_261" data-name="Group 261" transform="translate(11.432 10.951)">
        <circle id="Ellipse_62" data-name="Ellipse 62" cx="0.446" cy="0.446" r="0.446" fill="#d26e28"/>
      </g>
      <g id="Group_262" data-name="Group 262" transform="translate(4.373 7.106)">
        <circle id="Ellipse_63" data-name="Ellipse 63" cx="0.5" cy="0.5" r="0.5" transform="translate(0.346 0.199)" fill="#f5871e"/>
      </g>
      <g id="Group_263" data-name="Group 263" transform="translate(12.571 6.012)">
        <ellipse id="Ellipse_64" data-name="Ellipse 64" cx="0.5" cy="1" rx="0.5" ry="1" transform="translate(0.147 0.292)" fill="#f5871e"/>
      </g>
      <g id="Group_264" data-name="Group 264" transform="translate(21.479 4.476)">
        <circle id="Ellipse_65" data-name="Ellipse 65" cx="0.781" cy="0.781" r="0.781" fill="#f0915a"/>
      </g>
      <g id="Group_265" data-name="Group 265" transform="translate(19.246 7.602)">
        <circle id="Ellipse_66" data-name="Ellipse 66" cx="0.781" cy="0.781" r="0.781" fill="#f0915a"/>
      </g>
      <g id="Group_266" data-name="Group 266" transform="translate(14.758 2.186)">
        <ellipse id="Ellipse_67" data-name="Ellipse 67" cx="0.5" rx="0.5" transform="translate(-0.039 0.118)" fill="#f0915a"/>
      </g>
    </g>
    <g id="Group_286" data-name="Group 286" transform="translate(30.52 93.783)">
      <g id="Group_268" data-name="Group 268" transform="translate(0.108 0.088)">
        <path id="Path_1023" data-name="Path 1023" d="M209.414,248h-9.377a8.037,8.037,0,0,0,0,16.075h9.377a8.037,8.037,0,0,0,0-16.075Z" transform="translate(-192 -248)" fill="#f0915a"/>
      </g>
      <g id="Group_269" data-name="Group 269" transform="translate(0 0)">
        <ellipse id="Ellipse_68" data-name="Ellipse 68" cx="8.5" cy="8" rx="8.5" ry="8" transform="translate(-0.48 0.093)" fill="#fab991"/>
      </g>
      <g id="Group_275" data-name="Group 275" transform="translate(1.447 1.428)">
        <g id="Group_270" data-name="Group 270" transform="translate(1.861)">
          <path id="Path_1024" data-name="Path 1024" d="M232.836,267.349c1.116,0,1.116-1.34,2.232-1.34s1.116,1.34,2.233,1.34,1.116-1.34,2.233-1.34a1.153,1.153,0,0,1,.372.058,6.692,6.692,0,0,0-9.673,0,1.151,1.151,0,0,1,.371-.058C231.719,266.009,231.719,267.349,232.836,267.349Z" transform="translate(-230.232 -264)" fill="#a55023"/>
        </g>
        <g id="Group_271" data-name="Group 271" transform="translate(1.339 10.716)">
          <path id="Path_1025" data-name="Path 1025" d="M229.357,394.679A6.687,6.687,0,0,0,234.716,392H224A6.687,6.687,0,0,0,229.357,394.679Z" transform="translate(-223.999 -392)" fill="#5faa46"/>
        </g>
        <g id="Group_272" data-name="Group 272" transform="translate(0 2.009)">
          <path id="Path_1026" data-name="Path 1026" d="M219.534,288.058a1.154,1.154,0,0,0-.372-.058c-1.116,0-1.116,1.34-2.233,1.34S215.814,288,214.7,288s-1.116,1.34-2.232,1.34-1.116-1.34-2.232-1.34a1.152,1.152,0,0,0-.371.058A6.674,6.674,0,0,0,208,292.688q0,.34.034.671c1.082.027,1.094,1.338,2.2,1.338s1.116-1.34,2.232-1.34,1.116,1.34,2.232,1.34,1.116-1.34,2.233-1.34,1.116,1.34,2.233,1.34,1.117-1.311,2.2-1.338c.022-.221.034-.445.034-.671A6.674,6.674,0,0,0,219.534,288.058Z" transform="translate(-208 -288)" fill="#fabe19"/>
        </g>
        <g id="Group_273" data-name="Group 273" transform="translate(0.033 7.368)">
          <path id="Path_1027" data-name="Path 1027" d="M219.529,353.34c-1.116,0-1.116-1.34-2.233-1.34s-1.116,1.34-2.233,1.34-1.116-1.34-2.232-1.34-1.116,1.34-2.232,1.34-1.117-1.311-2.2-1.338a6.662,6.662,0,0,0,1.306,3.348h10.717A6.663,6.663,0,0,0,221.729,352C220.646,352.028,220.634,353.34,219.529,353.34Z" transform="translate(-208.4 -352)" fill="#a55023"/>
        </g>
        <g id="Group_274" data-name="Group 274" transform="translate(1.339 10.716)">
          <path id="Path_1028" data-name="Path 1028" d="M225.338,393.34h8.038a6.739,6.739,0,0,0,1.339-1.34H224A6.74,6.74,0,0,0,225.338,393.34Z" transform="translate(-223.999 -392)" fill="#91c83c"/>
        </g>
      </g>
      <g id="Group_276" data-name="Group 276" transform="translate(8.145 0.088)">
        <path id="Path_1029" data-name="Path 1029" d="M302.735,258.716h-4.019a2.679,2.679,0,0,1-2.679-2.679A8.037,8.037,0,0,0,288,248h9.377a8.037,8.037,0,0,1,8.037,8.037A2.679,2.679,0,0,1,302.735,258.716Z" transform="translate(-288 -248)" fill="#fab991"/>
      </g>
      <g id="Group_277" data-name="Group 277" transform="translate(8.199 5.466)">
        <circle id="Ellipse_69" data-name="Ellipse 69" cx="0.5" cy="0.5" r="0.5" transform="translate(0.321 -0.373)" fill="#f5871e"/>
      </g>
      <g id="Group_278" data-name="Group 278" transform="translate(5.019 9.912)">
        <circle id="Ellipse_70" data-name="Ellipse 70" cx="0.446" cy="0.446" r="0.446" fill="#d26e28"/>
      </g>
      <g id="Group_279" data-name="Group 279" transform="translate(9.484 2.768)">
        <circle id="Ellipse_71" data-name="Ellipse 71" cx="0.446" cy="0.446" r="0.446" fill="#d26e28"/>
      </g>
      <g id="Group_280" data-name="Group 280" transform="translate(11.271 10.805)">
        <circle id="Ellipse_72" data-name="Ellipse 72" cx="0.446" cy="0.446" r="0.446" fill="#d26e28"/>
      </g>
      <g id="Group_281" data-name="Group 281" transform="translate(4.373 6.559)">
        <ellipse id="Ellipse_73" data-name="Ellipse 73" cx="0.5" cy="1" rx="0.5" ry="1" transform="translate(0.147 -0.466)" fill="#f5871e"/>
      </g>
      <g id="Group_282" data-name="Group 282" transform="translate(12.025 6.012)">
        <circle id="Ellipse_74" data-name="Ellipse 74" cx="1" cy="1" r="1" transform="translate(0.495 0.081)" fill="#f5871e"/>
      </g>
      <g id="Group_283" data-name="Group 283" transform="translate(21.317 4.33)">
        <circle id="Ellipse_75" data-name="Ellipse 75" cx="0.781" cy="0.781" r="0.781" fill="#f0915a"/>
      </g>
      <g id="Group_284" data-name="Group 284" transform="translate(19.085 7.456)">
        <circle id="Ellipse_76" data-name="Ellipse 76" cx="0.781" cy="0.781" r="0.781" fill="#f0915a"/>
      </g>
      <g id="Group_285" data-name="Group 285" transform="translate(14.758 2.186)">
        <circle id="Ellipse_77" data-name="Ellipse 77" cx="0.5" cy="0.5" r="0.5" transform="translate(-0.238 -0.093)" fill="#f0915a"/>
      </g>
    </g>
  </g>
</svg>
