<svg xmlns="http://www.w3.org/2000/svg" width="30.773" height="30.801" viewBox="0 0 30.773 30.801">
  <g id="_033-fried_chicken" data-name="033-fried chicken" transform="translate(-21.904 -37.322)">
    <g id="Group_509" data-name="Group 509" transform="translate(39.352 39.878)">
      <path id="Path_1048" data-name="Path 1048" d="M0,0H4.35V10.874H0Z" transform="translate(7.688 0) rotate(45)" fill="#a5c3dc"/>
    </g>
    <g id="Group_510" data-name="Group 510" transform="translate(39.353 41.419)">
      <path id="Path_1049" data-name="Path 1049" d="M280.167,105.3l-1.538-1.538,6.152-6.152.769.769a1.087,1.087,0,0,1,0,1.538Z" transform="translate(-278.629 -97.607)" fill="#d7e6f0"/>
    </g>
    <g id="Group_511" data-name="Group 511" transform="translate(21.904 42.639)">
      <path id="Path_1050" data-name="Path 1050" d="M46.2,122.23v-.009a2.7,2.7,0,0,1,.768-1.666l.074-.074a1.087,1.087,0,0,0,0-1.538l-3.076-3.076a1.087,1.087,0,0,0-1.538,0l-.074.074a2.691,2.691,0,0,1-1.665.768l-.018,0a26.039,26.039,0,0,0-15.811,7.5,9.787,9.787,0,1,0,13.724,13.957A26.047,26.047,0,0,0,46.2,122.23Z" transform="translate(-21.904 -115.548)" fill="#d26e28"/>
    </g>
    <g id="Group_512" data-name="Group 512" transform="translate(22.998 51.883)">
      <path id="Path_1051" data-name="Path 1051" d="M40.942,264.377a.542.542,0,0,1-.381-.156,8.565,8.565,0,0,1-2.571-6.155,8.841,8.841,0,0,1,2.66-6.35.544.544,0,0,1,.763.775,7.761,7.761,0,0,0-2.336,5.574,7.486,7.486,0,0,0,2.246,5.38.544.544,0,0,1-.381.932Z" transform="translate(-37.99 -251.56)" fill="#f28a39"/>
    </g>
    <g id="Group_513" data-name="Group 513" transform="translate(48.327 39.629)">
      <circle id="Ellipse_254" data-name="Ellipse 254" cx="2.175" cy="2.175" r="2.175" fill="#a5c3dc"/>
    </g>
    <g id="Group_514" data-name="Group 514" transform="translate(46.021 37.322)">
      <circle id="Ellipse_255" data-name="Ellipse 255" cx="2.175" cy="2.175" r="2.175" fill="#d7e6f0"/>
    </g>
    <g id="Group_515" data-name="Group 515" transform="translate(30.335 44.495)">
      <path id="Path_1052" data-name="Path 1052" d="M161.812,147.688v-.009a2.7,2.7,0,0,1,.768-1.666l.074-.074a1.087,1.087,0,0,0,0-1.538l-1.538-1.538-13.843,13.843a4.528,4.528,0,0,0,0,6.4l.516.516a4.52,4.52,0,0,0,6.371.033l.035-.035A26.047,26.047,0,0,0,161.812,147.688Z" transform="translate(-145.948 -142.863)" fill="#a55023"/>
    </g>
    <g id="Group_520" data-name="Group 520" transform="translate(36.727 45.841)">
      <g id="Group_516" data-name="Group 516" transform="translate(1.087 0)">
        <circle id="Ellipse_256" data-name="Ellipse 256" cx="0.272" cy="0.272" r="0.272" fill="#a55023"/>
      </g>
      <g id="Group_517" data-name="Group 517" transform="translate(1.087 3.806)">
        <circle id="Ellipse_257" data-name="Ellipse 257" cx="0.272" cy="0.272" r="0.272" fill="#a55023"/>
      </g>
      <g id="Group_518" data-name="Group 518" transform="translate(0 1.087)">
        <circle id="Ellipse_258" data-name="Ellipse 258" cx="0.272" cy="0.272" r="0.272" fill="#a55023"/>
      </g>
      <g id="Group_519" data-name="Group 519" transform="translate(2.175 1.087)">
        <circle id="Ellipse_259" data-name="Ellipse 259" cx="0.272" cy="0.272" r="0.272" fill="#a55023"/>
      </g>
    </g>
    <g id="Group_525" data-name="Group 525" transform="translate(27.575 54.45)">
      <g id="Group_521" data-name="Group 521" transform="translate(3.806 1.087)">
        <circle id="Ellipse_260" data-name="Ellipse 260" cx="0.272" cy="0.272" r="0.272" fill="#a55023"/>
      </g>
      <g id="Group_522" data-name="Group 522" transform="translate(0 1.087)">
        <circle id="Ellipse_261" data-name="Ellipse 261" cx="0.272" cy="0.272" r="0.272" fill="#a55023"/>
      </g>
      <g id="Group_523" data-name="Group 523" transform="translate(2.719 0)">
        <circle id="Ellipse_262" data-name="Ellipse 262" cx="0.272" cy="0.272" r="0.272" fill="#a55023"/>
      </g>
      <g id="Group_524" data-name="Group 524" transform="translate(2.719 2.175)">
        <circle id="Ellipse_263" data-name="Ellipse 263" cx="0.272" cy="0.272" r="0.272" fill="#a55023"/>
      </g>
    </g>
    <g id="Group_530" data-name="Group 530" transform="translate(36.093 57.531)">
      <g id="Group_526" data-name="Group 526" transform="translate(0 1.087)">
        <circle id="Ellipse_264" data-name="Ellipse 264" cx="0.272" cy="0.272" r="0.272" fill="#8c3c14"/>
      </g>
      <g id="Group_527" data-name="Group 527" transform="translate(3.806 1.087)">
        <circle id="Ellipse_265" data-name="Ellipse 265" cx="0.272" cy="0.272" r="0.272" fill="#8c3c14"/>
      </g>
      <g id="Group_528" data-name="Group 528" transform="translate(1.087 2.175)">
        <circle id="Ellipse_266" data-name="Ellipse 266" cx="0.272" cy="0.272" r="0.272" fill="#8c3c14"/>
      </g>
      <g id="Group_529" data-name="Group 529" transform="translate(1.087)">
        <circle id="Ellipse_267" data-name="Ellipse 267" cx="0.272" cy="0.272" r="0.272" fill="#8c3c14"/>
      </g>
    </g>
  </g>
</svg>
