<svg xmlns="http://www.w3.org/2000/svg" width="32" height="32" viewBox="0 0 32 32">
  <g id="_052-pasta" data-name="052-pasta" transform="translate(-16 -16)">
    <g id="Group_287" data-name="Group 287" transform="translate(16 16)">
      <circle id="Ellipse_78" data-name="Ellipse 78" cx="16" cy="16" r="16" fill="#d7e6f0"/>
    </g>
    <g id="Group_289" data-name="Group 289" transform="translate(19 19)">
      <g id="Group_288" data-name="Group 288" transform="translate(0 0)">
        <circle id="Ellipse_79" data-name="Ellipse 79" cx="13" cy="13" r="13" transform="translate(0 0)" fill="#a5c3dc"/>
      </g>
    </g>
    <g id="Group_290" data-name="Group 290" transform="translate(30 30)">
      <circle id="Ellipse_80" data-name="Ellipse 80" cx="2" cy="2" r="2" transform="translate(0 0)" fill="#faa019"/>
    </g>
    <g id="Group_345" data-name="Group 345" transform="translate(19 19)">
      <g id="Group_295" data-name="Group 295" transform="translate(4 1)">
        <g id="Group_291" data-name="Group 291">
          <circle id="Ellipse_81" data-name="Ellipse 81" cx="5.5" cy="5.5" r="5.5" fill="#ffd23c"/>
        </g>
        <g id="Group_292" data-name="Group 292" transform="translate(1 1.5)">
          <circle id="Ellipse_82" data-name="Ellipse 82" cx="4.5" cy="4.5" r="4.5" transform="translate(0 -0.5)" fill="#faa019"/>
        </g>
        <g id="Group_293" data-name="Group 293" transform="translate(2 2.5)">
          <ellipse id="Ellipse_83" data-name="Ellipse 83" cx="3.5" cy="3" rx="3.5" ry="3" transform="translate(0 0.5)" fill="#ffd23c"/>
        </g>
        <g id="Group_294" data-name="Group 294" transform="translate(3 3.5)">
          <ellipse id="Ellipse_84" data-name="Ellipse 84" cx="2.5" cy="2" rx="2.5" ry="2" transform="translate(0 0.5)" fill="#f57828"/>
        </g>
      </g>
      <g id="Group_300" data-name="Group 300" transform="translate(11.5 1)">
        <g id="Group_296" data-name="Group 296">
          <ellipse id="Ellipse_85" data-name="Ellipse 85" cx="5" cy="5.5" rx="5" ry="5.5" transform="translate(0.5)" fill="#ffd23c"/>
        </g>
        <g id="Group_297" data-name="Group 297" transform="translate(1 1.5)">
          <ellipse id="Ellipse_86" data-name="Ellipse 86" cx="4" cy="4.5" rx="4" ry="4.5" transform="translate(0.5 -0.5)" fill="#faa019"/>
        </g>
        <g id="Group_298" data-name="Group 298" transform="translate(2 2.5)">
          <circle id="Ellipse_87" data-name="Ellipse 87" cx="3" cy="3" r="3" transform="translate(0.5 0.5)" fill="#ffd23c"/>
        </g>
        <g id="Group_299" data-name="Group 299" transform="translate(3 3.5)">
          <circle id="Ellipse_88" data-name="Ellipse 88" cx="2" cy="2" r="2" transform="translate(0.5 0.5)" fill="#f57828"/>
        </g>
      </g>
      <g id="Group_304" data-name="Group 304" transform="translate(7.5 0)">
        <g id="Group_301" data-name="Group 301">
          <circle id="Ellipse_89" data-name="Ellipse 89" cx="5.5" cy="5.5" r="5.5" transform="translate(0.5 0)" fill="#ffd23c"/>
        </g>
        <g id="Group_302" data-name="Group 302" transform="translate(1 1.5)">
          <circle id="Ellipse_90" data-name="Ellipse 90" cx="4.5" cy="4.5" r="4.5" transform="translate(0.5 -0.5)" fill="#faa019"/>
        </g>
        <g id="Group_303" data-name="Group 303" transform="translate(2.5 2.5)">
          <circle id="Ellipse_91" data-name="Ellipse 91" cx="3" cy="3" r="3" transform="translate(0 -0.5)" fill="#ffd23c"/>
        </g>
      </g>
      <g id="Group_309" data-name="Group 309" transform="translate(0 7.5)">
        <g id="Group_305" data-name="Group 305">
          <circle id="Ellipse_92" data-name="Ellipse 92" cx="5.5" cy="5.5" r="5.5" transform="translate(0 -0.5)" fill="#ffd23c"/>
        </g>
        <g id="Group_306" data-name="Group 306" transform="translate(1.5 1)">
          <ellipse id="Ellipse_93" data-name="Ellipse 93" cx="4" cy="4.5" rx="4" ry="4.5" transform="translate(0.5 0.5)" fill="#faa019"/>
        </g>
        <g id="Group_307" data-name="Group 307" transform="translate(2.5 2.5)">
          <circle id="Ellipse_94" data-name="Ellipse 94" cx="3" cy="3" r="3" transform="translate(0.5 0)" fill="#ffd23c"/>
        </g>
        <g id="Group_308" data-name="Group 308" transform="translate(3.5 3.5)">
          <circle id="Ellipse_95" data-name="Ellipse 95" cx="2" cy="2" r="2" transform="translate(0.5 0)" fill="#f57828"/>
        </g>
      </g>
      <g id="Group_313" data-name="Group 313" transform="translate(1 4)">
        <g id="Group_310" data-name="Group 310">
          <circle id="Ellipse_96" data-name="Ellipse 96" cx="5.5" cy="5.5" r="5.5" transform="translate(0)" fill="#ffd23c"/>
        </g>
        <g id="Group_311" data-name="Group 311" transform="translate(1.5 1)">
          <ellipse id="Ellipse_97" data-name="Ellipse 97" cx="4" cy="4.5" rx="4" ry="4.5" transform="translate(0.5)" fill="#faa019"/>
        </g>
        <g id="Group_312" data-name="Group 312" transform="translate(2.5 2)">
          <ellipse id="Ellipse_98" data-name="Ellipse 98" cx="3" cy="3.5" rx="3" ry="3.5" transform="translate(0.5)" fill="#ffd23c"/>
        </g>
      </g>
      <g id="Group_318" data-name="Group 318" transform="translate(4 14)">
        <g id="Group_314" data-name="Group 314">
          <circle id="Ellipse_99" data-name="Ellipse 99" cx="5.5" cy="5.5" r="5.5" fill="#ffd23c"/>
        </g>
        <g id="Group_315" data-name="Group 315" transform="translate(1 1)">
          <ellipse id="Ellipse_100" data-name="Ellipse 100" cx="4.5" cy="4" rx="4.5" ry="4" transform="translate(0 0)" fill="#faa019"/>
        </g>
        <g id="Group_316" data-name="Group 316" transform="translate(2 2.5)">
          <ellipse id="Ellipse_101" data-name="Ellipse 101" cx="3.5" cy="3" rx="3.5" ry="3" transform="translate(0 -0.5)" fill="#ffd23c"/>
        </g>
        <g id="Group_317" data-name="Group 317" transform="translate(3 3.5)">
          <ellipse id="Ellipse_102" data-name="Ellipse 102" cx="2.5" cy="2" rx="2.5" ry="2" transform="translate(0 0.5)" fill="#f57828"/>
        </g>
      </g>
      <g id="Group_322" data-name="Group 322" transform="translate(1 11.5)">
        <g id="Group_319" data-name="Group 319">
          <circle id="Ellipse_103" data-name="Ellipse 103" cx="5.5" cy="5.5" r="5.5" transform="translate(0 -0.5)" fill="#ffd23c"/>
        </g>
        <g id="Group_320" data-name="Group 320" transform="translate(1.5 1)">
          <circle id="Ellipse_104" data-name="Ellipse 104" cx="4" cy="4" r="4" transform="translate(0.5 0.5)" fill="#faa019"/>
        </g>
        <g id="Group_321" data-name="Group 321" transform="translate(2.5 2)">
          <circle id="Ellipse_105" data-name="Ellipse 105" cx="3" cy="3" r="3" transform="translate(0.5 0.5)" fill="#ffd23c"/>
        </g>
      </g>
      <g id="Group_327" data-name="Group 327" transform="translate(11.5 14)">
        <g id="Group_323" data-name="Group 323">
          <ellipse id="Ellipse_106" data-name="Ellipse 106" cx="5" cy="5.5" rx="5" ry="5.5" transform="translate(0.5)" fill="#ffd23c"/>
        </g>
        <g id="Group_324" data-name="Group 324" transform="translate(1 1)">
          <circle id="Ellipse_107" data-name="Ellipse 107" cx="4" cy="4" r="4" transform="translate(0.5 0)" fill="#faa019"/>
        </g>
        <g id="Group_325" data-name="Group 325" transform="translate(2 2.5)">
          <circle id="Ellipse_108" data-name="Ellipse 108" cx="3" cy="3" r="3" transform="translate(0.5 -0.5)" fill="#ffd23c"/>
        </g>
        <g id="Group_326" data-name="Group 326" transform="translate(3 3.5)">
          <circle id="Ellipse_109" data-name="Ellipse 109" cx="2" cy="2" r="2" transform="translate(0.5 0.5)" fill="#f57828"/>
        </g>
      </g>
      <g id="Group_331" data-name="Group 331" transform="translate(7.5 15)">
        <g id="Group_328" data-name="Group 328">
          <circle id="Ellipse_110" data-name="Ellipse 110" cx="5.5" cy="5.5" r="5.5" transform="translate(0.5 0)" fill="#ffd23c"/>
        </g>
        <g id="Group_329" data-name="Group 329" transform="translate(1 1)">
          <ellipse id="Ellipse_111" data-name="Ellipse 111" cx="4.5" cy="4" rx="4.5" ry="4" transform="translate(0.5 0)" fill="#faa019"/>
        </g>
        <g id="Group_330" data-name="Group 330" transform="translate(2.5 2.5)">
          <circle id="Ellipse_112" data-name="Ellipse 112" cx="3" cy="3" r="3" transform="translate(0 -0.5)" fill="#ffd23c"/>
        </g>
      </g>
      <g id="Group_336" data-name="Group 336" transform="translate(15 7.5)">
        <g id="Group_332" data-name="Group 332">
          <circle id="Ellipse_113" data-name="Ellipse 113" cx="5.5" cy="5.5" r="5.5" transform="translate(0 -0.5)" fill="#ffd23c"/>
        </g>
        <g id="Group_333" data-name="Group 333" transform="translate(1 1)">
          <circle id="Ellipse_114" data-name="Ellipse 114" cx="4.5" cy="4.5" r="4.5" transform="translate(0 0.5)" fill="#faa019"/>
        </g>
        <g id="Group_334" data-name="Group 334" transform="translate(2.5 2.5)">
          <circle id="Ellipse_115" data-name="Ellipse 115" cx="3" cy="3" r="3" transform="translate(0.5 0)" fill="#ffd23c"/>
        </g>
        <g id="Group_335" data-name="Group 335" transform="translate(3.5 3.5)">
          <circle id="Ellipse_116" data-name="Ellipse 116" cx="2" cy="2" r="2" transform="translate(0.5 0)" fill="#f57828"/>
        </g>
      </g>
      <g id="Group_340" data-name="Group 340" transform="translate(14 11.5)">
        <g id="Group_337" data-name="Group 337">
          <circle id="Ellipse_117" data-name="Ellipse 117" cx="5.5" cy="5.5" r="5.5" transform="translate(0 -0.5)" fill="#ffd23c"/>
        </g>
        <g id="Group_338" data-name="Group 338" transform="translate(1 1)">
          <ellipse id="Ellipse_118" data-name="Ellipse 118" cx="4.5" cy="4" rx="4.5" ry="4" transform="translate(0 0.5)" fill="#faa019"/>
        </g>
        <g id="Group_339" data-name="Group 339" transform="translate(2.5 2)">
          <circle id="Ellipse_119" data-name="Ellipse 119" cx="3" cy="3" r="3" transform="translate(0.5 0.5)" fill="#ffd23c"/>
        </g>
      </g>
      <g id="Group_344" data-name="Group 344" transform="translate(14 4)">
        <g id="Group_341" data-name="Group 341">
          <circle id="Ellipse_120" data-name="Ellipse 120" cx="5.5" cy="5.5" r="5.5" fill="#ffd23c"/>
        </g>
        <g id="Group_342" data-name="Group 342" transform="translate(1 1)">
          <circle id="Ellipse_121" data-name="Ellipse 121" cx="4.5" cy="4.5" r="4.5" fill="#faa019"/>
        </g>
        <g id="Group_343" data-name="Group 343" transform="translate(2.5 2)">
          <ellipse id="Ellipse_122" data-name="Ellipse 122" cx="3" cy="3.5" rx="3" ry="3.5" transform="translate(0.5)" fill="#ffd23c"/>
        </g>
      </g>
    </g>
    <g id="Group_346" data-name="Group 346" transform="translate(23.5 33.5)">
      <ellipse id="Ellipse_123" data-name="Ellipse 123" cx="2" cy="2.5" rx="2" ry="2.5" transform="translate(0.5 -0.5)" fill="#faa019"/>
    </g>
    <g id="Group_347" data-name="Group 347" transform="translate(30 37.5)">
      <circle id="Ellipse_124" data-name="Ellipse 124" cx="2" cy="2" r="2" transform="translate(0 0.5)" fill="#faa019"/>
    </g>
    <g id="Group_348" data-name="Group 348" transform="translate(36.5 33.5)">
      <ellipse id="Ellipse_125" data-name="Ellipse 125" cx="2" cy="2.5" rx="2" ry="2.5" transform="translate(0.5 -0.5)" fill="#faa019"/>
    </g>
    <g id="Group_349" data-name="Group 349" transform="translate(36.5 26)">
      <circle id="Ellipse_126" data-name="Ellipse 126" cx="2" cy="2" r="2" transform="translate(0.5 0)" fill="#faa019"/>
    </g>
    <g id="Group_350" data-name="Group 350" transform="translate(30 22.5)">
      <circle id="Ellipse_127" data-name="Ellipse 127" cx="2" cy="2" r="2" transform="translate(0 0.5)" fill="#faa019"/>
    </g>
    <g id="Group_355" data-name="Group 355" transform="translate(26.5 23.5)">
      <g id="Group_351" data-name="Group 351" transform="translate(0)">
        <ellipse id="Ellipse_128" data-name="Ellipse 128" cx="5.5" cy="5" rx="5.5" ry="5" transform="translate(0.5 0.5)" fill="#ffd23c"/>
      </g>
      <g id="Group_352" data-name="Group 352" transform="translate(1 1)">
        <ellipse id="Ellipse_129" data-name="Ellipse 129" cx="4.5" cy="4" rx="4.5" ry="4" transform="translate(0.5 0.5)" fill="#faa019"/>
      </g>
      <g id="Group_353" data-name="Group 353" transform="translate(2.5 2)">
        <ellipse id="Ellipse_130" data-name="Ellipse 130" cx="3" cy="3.5" rx="3" ry="3.5" transform="translate(0 -0.5)" fill="#ffd23c"/>
      </g>
      <g id="Group_354" data-name="Group 354" transform="translate(3.5 3)">
        <circle id="Ellipse_131" data-name="Ellipse 131" cx="2" cy="2" r="2" transform="translate(0 0.5)" fill="#faa019"/>
      </g>
    </g>
    <g id="Group_360" data-name="Group 360" transform="translate(26.5 30)">
      <g id="Group_356" data-name="Group 356" transform="translate(0)">
        <circle id="Ellipse_132" data-name="Ellipse 132" cx="5.5" cy="5.5" r="5.5" transform="translate(0.5 0)" fill="#ffd23c"/>
      </g>
      <g id="Group_357" data-name="Group 357" transform="translate(1 1)">
        <circle id="Ellipse_133" data-name="Ellipse 133" cx="4.5" cy="4.5" r="4.5" transform="translate(0.5)" fill="#faa019"/>
      </g>
      <g id="Group_358" data-name="Group 358" transform="translate(2.5 2)">
        <ellipse id="Ellipse_134" data-name="Ellipse 134" cx="3" cy="3.5" rx="3" ry="3.5" fill="#ffd23c"/>
      </g>
      <g id="Group_359" data-name="Group 359" transform="translate(3.5 3)">
        <ellipse id="Ellipse_135" data-name="Ellipse 135" cx="2" cy="2.5" rx="2" ry="2.5" fill="#faa019"/>
      </g>
    </g>
    <g id="Group_361" data-name="Group 361" transform="translate(23.5 26)">
      <circle id="Ellipse_136" data-name="Ellipse 136" cx="2" cy="2" r="2" transform="translate(0.5 0)" fill="#faa019"/>
    </g>
    <g id="Group_367" data-name="Group 367" transform="translate(23.5 26.5)">
      <g id="Group_362" data-name="Group 362" transform="translate(0 0)">
        <ellipse id="Ellipse_137" data-name="Ellipse 137" cx="5" cy="5.5" rx="5" ry="5.5" transform="translate(0.5 -0.5)" fill="#ffd23c"/>
      </g>
      <g id="Group_363" data-name="Group 363" transform="translate(1 1)">
        <ellipse id="Ellipse_138" data-name="Ellipse 138" cx="4" cy="4.5" rx="4" ry="4.5" transform="translate(0.5 0.5)" fill="#faa019"/>
      </g>
      <g id="Group_364" data-name="Group 364" transform="translate(2 2.5)">
        <circle id="Ellipse_139" data-name="Ellipse 139" cx="3" cy="3" r="3" transform="translate(0.5 0)" fill="#ffd23c"/>
      </g>
      <g id="Group_365" data-name="Group 365" transform="translate(3 3.5)">
        <circle id="Ellipse_140" data-name="Ellipse 140" cx="2" cy="2" r="2" transform="translate(0.5 0)" fill="#faa019"/>
      </g>
      <g id="Group_366" data-name="Group 366" transform="translate(4 4.5)">
        <circle id="Ellipse_141" data-name="Ellipse 141" cx="1" cy="1" r="1" transform="translate(0.5)" fill="#ffd23c"/>
      </g>
    </g>
    <g id="Group_373" data-name="Group 373" transform="translate(30 26.5)">
      <g id="Group_368" data-name="Group 368" transform="translate(0 0)">
        <circle id="Ellipse_142" data-name="Ellipse 142" cx="5.5" cy="5.5" r="5.5" transform="translate(0 -0.5)" fill="#ffd23c"/>
      </g>
      <g id="Group_369" data-name="Group 369" transform="translate(1 1)">
        <circle id="Ellipse_143" data-name="Ellipse 143" cx="4.5" cy="4.5" r="4.5" transform="translate(0 0.5)" fill="#faa019"/>
      </g>
      <g id="Group_370" data-name="Group 370" transform="translate(2 2.5)">
        <ellipse id="Ellipse_144" data-name="Ellipse 144" cx="3.5" cy="3" rx="3.5" ry="3" transform="translate(0 0)" fill="#ffd23c"/>
      </g>
      <g id="Group_371" data-name="Group 371" transform="translate(3 3.5)">
        <ellipse id="Ellipse_145" data-name="Ellipse 145" cx="2.5" cy="2" rx="2.5" ry="2" transform="translate(0 0)" fill="#faa019"/>
      </g>
      <g id="Group_372" data-name="Group 372" transform="translate(4 4.5)">
        <ellipse id="Ellipse_146" data-name="Ellipse 146" cx="1.5" cy="1" rx="1.5" ry="1" fill="#ffd23c"/>
      </g>
    </g>
    <g id="Group_380" data-name="Group 380" transform="translate(30.222 34.311)">
      <g id="Group_374" data-name="Group 374" transform="translate(4.8 2.944)">
        <circle id="Ellipse_147" data-name="Ellipse 147" cx="0.267" cy="0.267" r="0.267" fill="#5faa46"/>
      </g>
      <g id="Group_375" data-name="Group 375" transform="translate(5.689 1.067)">
        <circle id="Ellipse_148" data-name="Ellipse 148" cx="0.267" cy="0.267" r="0.267" fill="#5faa46"/>
      </g>
      <g id="Group_376" data-name="Group 376" transform="translate(0.995 1.877)">
        <circle id="Ellipse_149" data-name="Ellipse 149" cx="0.267" cy="0.267" r="0.267" fill="#5faa46"/>
      </g>
      <g id="Group_377" data-name="Group 377" transform="translate(2.667)">
        <circle id="Ellipse_150" data-name="Ellipse 150" cx="0.267" cy="0.267" r="0.267" fill="#5faa46"/>
      </g>
      <g id="Group_378" data-name="Group 378" transform="translate(2.124 4.562)">
        <circle id="Ellipse_151" data-name="Ellipse 151" cx="0.267" cy="0.267" r="0.267" fill="#5faa46"/>
      </g>
      <g id="Group_379" data-name="Group 379" transform="translate(0 3.545)">
        <circle id="Ellipse_152" data-name="Ellipse 152" cx="0.267" cy="0.267" r="0.267" fill="#5faa46"/>
      </g>
    </g>
    <g id="Group_387" data-name="Group 387" transform="translate(24.949 36.089)">
      <g id="Group_381" data-name="Group 381" transform="translate(2.944 0.889)">
        <circle id="Ellipse_153" data-name="Ellipse 153" cx="0.267" cy="0.267" r="0.267" fill="#5faa46"/>
      </g>
      <g id="Group_382" data-name="Group 382" transform="translate(1.067)">
        <circle id="Ellipse_154" data-name="Ellipse 154" cx="0.267" cy="0.267" r="0.267" fill="#5faa46"/>
      </g>
      <g id="Group_383" data-name="Group 383" transform="translate(1.877 4.694)">
        <circle id="Ellipse_155" data-name="Ellipse 155" cx="0.267" cy="0.267" r="0.267" fill="#5faa46"/>
      </g>
      <g id="Group_384" data-name="Group 384" transform="translate(0 3.022)">
        <circle id="Ellipse_156" data-name="Ellipse 156" cx="0.267" cy="0.267" r="0.267" fill="#5faa46"/>
      </g>
      <g id="Group_385" data-name="Group 385" transform="translate(4.562 3.565)">
        <circle id="Ellipse_157" data-name="Ellipse 157" cx="0.267" cy="0.267" r="0.267" fill="#5faa46"/>
      </g>
      <g id="Group_386" data-name="Group 386" transform="translate(3.545 5.689)">
        <circle id="Ellipse_158" data-name="Ellipse 158" cx="0.267" cy="0.267" r="0.267" fill="#5faa46"/>
      </g>
    </g>
    <g id="Group_396" data-name="Group 396" transform="translate(22.933 23.644)">
      <g id="Group_388" data-name="Group 388" transform="translate(9.6)">
        <circle id="Ellipse_159" data-name="Ellipse 159" cx="1.067" cy="1.067" r="1.067" fill="#f04b37"/>
      </g>
      <g id="Group_389" data-name="Group 389" transform="translate(16.356 4.089)">
        <circle id="Ellipse_160" data-name="Ellipse 160" cx="1.067" cy="1.067" r="1.067" fill="#f04b37"/>
      </g>
      <g id="Group_390" data-name="Group 390" transform="translate(2.667 4.8)">
        <circle id="Ellipse_161" data-name="Ellipse 161" cx="1.067" cy="1.067" r="1.067" fill="#f04b37"/>
      </g>
      <g id="Group_391" data-name="Group 391" transform="translate(0 10.667)">
        <circle id="Ellipse_162" data-name="Ellipse 162" cx="1.067" cy="1.067" r="1.067" fill="#f04b37"/>
      </g>
      <g id="Group_392" data-name="Group 392" transform="translate(7.644 14.756)">
        <circle id="Ellipse_163" data-name="Ellipse 163" cx="1.067" cy="1.067" r="1.067" fill="#f04b37"/>
      </g>
      <g id="Group_393" data-name="Group 393" transform="translate(15.822 13.156)">
        <circle id="Ellipse_164" data-name="Ellipse 164" cx="1.067" cy="1.067" r="1.067" fill="#f04b37"/>
      </g>
      <g id="Group_394" data-name="Group 394" transform="translate(0 2.133)">
        <circle id="Ellipse_165" data-name="Ellipse 165" cx="1.067" cy="1.067" r="1.067" fill="#f04b37"/>
      </g>
      <g id="Group_395" data-name="Group 395" transform="translate(11.378 4.622)">
        <circle id="Ellipse_166" data-name="Ellipse 166" cx="1.067" cy="1.067" r="1.067" fill="#f04b37"/>
      </g>
    </g>
    <g id="Group_403" data-name="Group 403" transform="translate(31.467 30.755)">
      <g id="Group_397" data-name="Group 397" transform="translate(4.8 2.944)">
        <circle id="Ellipse_167" data-name="Ellipse 167" cx="0.267" cy="0.267" r="0.267" fill="#5faa46"/>
      </g>
      <g id="Group_398" data-name="Group 398" transform="translate(5.689 1.067)">
        <circle id="Ellipse_168" data-name="Ellipse 168" cx="0.267" cy="0.267" r="0.267" fill="#5faa46"/>
      </g>
      <g id="Group_399" data-name="Group 399" transform="translate(0.995 1.877)">
        <circle id="Ellipse_169" data-name="Ellipse 169" cx="0.267" cy="0.267" r="0.267" fill="#5faa46"/>
      </g>
      <g id="Group_400" data-name="Group 400" transform="translate(2.667 0)">
        <circle id="Ellipse_170" data-name="Ellipse 170" cx="0.267" cy="0.267" r="0.267" fill="#5faa46"/>
      </g>
      <g id="Group_401" data-name="Group 401" transform="translate(2.124 4.562)">
        <circle id="Ellipse_171" data-name="Ellipse 171" cx="0.267" cy="0.267" r="0.267" fill="#5faa46"/>
      </g>
      <g id="Group_402" data-name="Group 402" transform="translate(0 3.545)">
        <circle id="Ellipse_172" data-name="Ellipse 172" cx="0.267" cy="0.267" r="0.267" fill="#5faa46"/>
      </g>
    </g>
    <g id="Group_410" data-name="Group 410" transform="translate(25.778 25.482)">
      <g id="Group_404" data-name="Group 404" transform="translate(4.8 2.944)">
        <circle id="Ellipse_173" data-name="Ellipse 173" cx="0.267" cy="0.267" r="0.267" fill="#5faa46"/>
      </g>
      <g id="Group_405" data-name="Group 405" transform="translate(5.689 1.067)">
        <circle id="Ellipse_174" data-name="Ellipse 174" cx="0.267" cy="0.267" r="0.267" fill="#5faa46"/>
      </g>
      <g id="Group_406" data-name="Group 406" transform="translate(0.995 1.877)">
        <circle id="Ellipse_175" data-name="Ellipse 175" cx="0.267" cy="0.267" r="0.267" fill="#5faa46"/>
      </g>
      <g id="Group_407" data-name="Group 407" transform="translate(2.667)">
        <circle id="Ellipse_176" data-name="Ellipse 176" cx="0.267" cy="0.267" r="0.267" fill="#5faa46"/>
      </g>
      <g id="Group_408" data-name="Group 408" transform="translate(2.124 4.562)">
        <circle id="Ellipse_177" data-name="Ellipse 177" cx="0.267" cy="0.267" r="0.267" fill="#5faa46"/>
      </g>
      <g id="Group_409" data-name="Group 409" transform="translate(0 3.545)">
        <circle id="Ellipse_178" data-name="Ellipse 178" cx="0.267" cy="0.267" r="0.267" fill="#5faa46"/>
      </g>
    </g>
    <g id="Group_417" data-name="Group 417" transform="translate(23.645 33.422)">
      <g id="Group_411" data-name="Group 411" transform="translate(4.8 2.944)">
        <circle id="Ellipse_179" data-name="Ellipse 179" cx="0.267" cy="0.267" r="0.267" fill="#5faa46"/>
      </g>
      <g id="Group_412" data-name="Group 412" transform="translate(5.689 1.067)">
        <circle id="Ellipse_180" data-name="Ellipse 180" cx="0.267" cy="0.267" r="0.267" fill="#5faa46"/>
      </g>
      <g id="Group_413" data-name="Group 413" transform="translate(0.995 1.877)">
        <circle id="Ellipse_181" data-name="Ellipse 181" cx="0.267" cy="0.267" r="0.267" fill="#5faa46"/>
      </g>
      <g id="Group_414" data-name="Group 414" transform="translate(2.667)">
        <circle id="Ellipse_182" data-name="Ellipse 182" cx="0.267" cy="0.267" r="0.267" fill="#5faa46"/>
      </g>
      <g id="Group_415" data-name="Group 415" transform="translate(2.124 4.562)">
        <circle id="Ellipse_183" data-name="Ellipse 183" cx="0.267" cy="0.267" r="0.267" fill="#5faa46"/>
      </g>
      <g id="Group_416" data-name="Group 416" transform="translate(0 3.545)">
        <circle id="Ellipse_184" data-name="Ellipse 184" cx="0.267" cy="0.267" r="0.267" fill="#5faa46"/>
      </g>
    </g>
    <g id="Group_424" data-name="Group 424" transform="translate(37.511 30.222)">
      <g id="Group_418" data-name="Group 418" transform="translate(4.8 2.944)">
        <circle id="Ellipse_185" data-name="Ellipse 185" cx="0.267" cy="0.267" r="0.267" fill="#5faa46"/>
      </g>
      <g id="Group_419" data-name="Group 419" transform="translate(5.689 1.067)">
        <circle id="Ellipse_186" data-name="Ellipse 186" cx="0.267" cy="0.267" r="0.267" fill="#5faa46"/>
      </g>
      <g id="Group_420" data-name="Group 420" transform="translate(0.995 1.877)">
        <circle id="Ellipse_187" data-name="Ellipse 187" cx="0.267" cy="0.267" r="0.267" fill="#5faa46"/>
      </g>
      <g id="Group_421" data-name="Group 421" transform="translate(2.667 0)">
        <circle id="Ellipse_188" data-name="Ellipse 188" cx="0.267" cy="0.267" r="0.267" fill="#5faa46"/>
      </g>
      <g id="Group_422" data-name="Group 422" transform="translate(2.124 4.562)">
        <circle id="Ellipse_189" data-name="Ellipse 189" cx="0.267" cy="0.267" r="0.267" fill="#5faa46"/>
      </g>
      <g id="Group_423" data-name="Group 423" transform="translate(0 3.545)">
        <circle id="Ellipse_190" data-name="Ellipse 190" cx="0.267" cy="0.267" r="0.267" fill="#5faa46"/>
      </g>
    </g>
    <g id="Group_431" data-name="Group 431" transform="translate(33.452 21.541)">
      <g id="Group_425" data-name="Group 425" transform="translate(2.944 0.889)">
        <circle id="Ellipse_191" data-name="Ellipse 191" cx="0.267" cy="0.267" r="0.267" fill="#5faa46"/>
      </g>
      <g id="Group_426" data-name="Group 426" transform="translate(1.067 0)">
        <circle id="Ellipse_192" data-name="Ellipse 192" cx="0.267" cy="0.267" r="0.267" fill="#5faa46"/>
      </g>
      <g id="Group_427" data-name="Group 427" transform="translate(1.877 4.694)">
        <circle id="Ellipse_193" data-name="Ellipse 193" cx="0.267" cy="0.267" r="0.267" fill="#5faa46"/>
      </g>
      <g id="Group_428" data-name="Group 428" transform="translate(0 3.022)">
        <circle id="Ellipse_194" data-name="Ellipse 194" cx="0.267" cy="0.267" r="0.267" fill="#5faa46"/>
      </g>
      <g id="Group_429" data-name="Group 429" transform="translate(4.562 3.565)">
        <circle id="Ellipse_195" data-name="Ellipse 195" cx="0.267" cy="0.267" r="0.267" fill="#5faa46"/>
      </g>
      <g id="Group_430" data-name="Group 430" transform="translate(3.545 5.689)">
        <circle id="Ellipse_196" data-name="Ellipse 196" cx="0.267" cy="0.267" r="0.267" fill="#5faa46"/>
      </g>
    </g>
    <g id="Group_438" data-name="Group 438" transform="translate(25 22.044)">
      <g id="Group_432" data-name="Group 432" transform="translate(3.011 0.889)">
        <circle id="Ellipse_197" data-name="Ellipse 197" cx="0.267" cy="0.267" r="0.267" fill="#5faa46"/>
      </g>
      <g id="Group_433" data-name="Group 433" transform="translate(1.133 0)">
        <circle id="Ellipse_198" data-name="Ellipse 198" cx="0.267" cy="0.267" r="0.267" fill="#5faa46"/>
      </g>
      <g id="Group_434" data-name="Group 434" transform="translate(1.944 4.694)">
        <circle id="Ellipse_199" data-name="Ellipse 199" cx="0.267" cy="0.267" r="0.267" fill="#5faa46"/>
      </g>
      <g id="Group_435" data-name="Group 435" transform="translate(0 2.956)">
        <circle id="Ellipse_200" data-name="Ellipse 200" transform="translate(0 0)" fill="#5faa46"/>
      </g>
      <g id="Group_436" data-name="Group 436" transform="translate(4.629 3.565)">
        <circle id="Ellipse_201" data-name="Ellipse 201" cx="0.267" cy="0.267" r="0.267" fill="#5faa46"/>
      </g>
      <g id="Group_437" data-name="Group 437" transform="translate(3.612 5.689)">
        <circle id="Ellipse_202" data-name="Ellipse 202" cx="0.267" cy="0.267" r="0.267" fill="#5faa46"/>
      </g>
    </g>
    <g id="Group_460" data-name="Group 460" transform="translate(24.889 24.821)">
      <g id="Group_439" data-name="Group 439" transform="translate(11.92 1.846)">
        <circle id="Ellipse_203" data-name="Ellipse 203" cx="0.267" cy="0.267" r="0.267" fill="#d7e6f0"/>
      </g>
      <g id="Group_440" data-name="Group 440" transform="translate(9.642 3.285)">
        <circle id="Ellipse_204" data-name="Ellipse 204" cx="0.267" cy="0.267" r="0.267" fill="#d7e6f0"/>
      </g>
      <g id="Group_441" data-name="Group 441" transform="translate(7.411 0)">
        <circle id="Ellipse_205" data-name="Ellipse 205" cx="0.267" cy="0.267" r="0.267" fill="#d7e6f0"/>
      </g>
      <g id="Group_442" data-name="Group 442" transform="translate(3.884 2.865)">
        <circle id="Ellipse_206" data-name="Ellipse 206" cx="0.267" cy="0.267" r="0.267" fill="#d7e6f0"/>
      </g>
      <g id="Group_443" data-name="Group 443" transform="translate(2.183 1.877)">
        <circle id="Ellipse_207" data-name="Ellipse 207" cx="0.267" cy="0.267" r="0.267" fill="#d7e6f0"/>
      </g>
      <g id="Group_444" data-name="Group 444" transform="translate(5.992 0.293)">
        <circle id="Ellipse_208" data-name="Ellipse 208" cx="0.267" cy="0.267" r="0.267" fill="#d7e6f0"/>
      </g>
      <g id="Group_445" data-name="Group 445" transform="translate(2.351 9.105)">
        <circle id="Ellipse_209" data-name="Ellipse 209" cx="0.267" cy="0.267" r="0.267" fill="#d7e6f0"/>
      </g>
      <g id="Group_446" data-name="Group 446" transform="translate(0 8.197)">
        <circle id="Ellipse_210" data-name="Ellipse 210" cx="0.267" cy="0.267" r="0.267" fill="#d7e6f0"/>
      </g>
      <g id="Group_447" data-name="Group 447" transform="translate(1.759 4.588)">
        <circle id="Ellipse_211" data-name="Ellipse 211" cx="0.267" cy="0.267" r="0.267" fill="#d7e6f0"/>
      </g>
      <g id="Group_448" data-name="Group 448" transform="translate(10.881 9.932)">
        <circle id="Ellipse_212" data-name="Ellipse 212" cx="0.267" cy="0.267" r="0.267" fill="#d7e6f0"/>
      </g>
      <g id="Group_449" data-name="Group 449" transform="translate(7.519 8.105)">
        <circle id="Ellipse_213" data-name="Ellipse 213" cx="0.267" cy="0.267" r="0.267" fill="#d7e6f0"/>
      </g>
      <g id="Group_450" data-name="Group 450" transform="translate(8.07 5.411)">
        <circle id="Ellipse_214" data-name="Ellipse 214" cx="0.267" cy="0.267" r="0.267" fill="#d7e6f0"/>
      </g>
      <g id="Group_451" data-name="Group 451" transform="translate(14.08 8.653)">
        <circle id="Ellipse_215" data-name="Ellipse 215" cx="0.267" cy="0.267" r="0.267" fill="#d7e6f0"/>
      </g>
      <g id="Group_452" data-name="Group 452" transform="translate(10.63 6.285)">
        <circle id="Ellipse_216" data-name="Ellipse 216" cx="0.267" cy="0.267" r="0.267" fill="#d7e6f0"/>
      </g>
      <g id="Group_453" data-name="Group 453" transform="translate(13.571 4.954)">
        <circle id="Ellipse_217" data-name="Ellipse 217" cx="0.267" cy="0.267" r="0.267" fill="#d7e6f0"/>
      </g>
      <g id="Group_454" data-name="Group 454" transform="translate(3.405 13.401)">
        <circle id="Ellipse_218" data-name="Ellipse 218" cx="0.267" cy="0.267" r="0.267" fill="#d7e6f0"/>
      </g>
      <g id="Group_455" data-name="Group 455" transform="translate(1.79 12.384)">
        <circle id="Ellipse_219" data-name="Ellipse 219" cx="0.267" cy="0.267" r="0.267" fill="#d7e6f0"/>
      </g>
      <g id="Group_456" data-name="Group 456" transform="translate(4.874 8.57)">
        <circle id="Ellipse_220" data-name="Ellipse 220" cx="0.267" cy="0.267" r="0.267" fill="#d7e6f0"/>
      </g>
      <g id="Group_457" data-name="Group 457" transform="translate(8.63 13.216)">
        <circle id="Ellipse_221" data-name="Ellipse 221" cx="0.267" cy="0.267" r="0.267" fill="#d7e6f0"/>
      </g>
      <g id="Group_458" data-name="Group 458" transform="translate(9.082 11.527)">
        <circle id="Ellipse_222" data-name="Ellipse 222" cx="0.267" cy="0.267" r="0.267" fill="#d7e6f0"/>
      </g>
      <g id="Group_459" data-name="Group 459" transform="translate(11.808 11.884)">
        <circle id="Ellipse_223" data-name="Ellipse 223" cx="0.267" cy="0.267" r="0.267" fill="#d7e6f0"/>
      </g>
    </g>
    <g id="Group_482" data-name="Group 482" transform="translate(23.253 23.111)">
      <g id="Group_461" data-name="Group 461" transform="translate(11.92 1.846)">
        <circle id="Ellipse_224" data-name="Ellipse 224" cx="0.267" cy="0.267" r="0.267" fill="#d7e6f0"/>
      </g>
      <g id="Group_462" data-name="Group 462" transform="translate(9.642 3.285)">
        <circle id="Ellipse_225" data-name="Ellipse 225" cx="0.267" cy="0.267" r="0.267" fill="#d7e6f0"/>
      </g>
      <g id="Group_463" data-name="Group 463" transform="translate(7.411)">
        <circle id="Ellipse_226" data-name="Ellipse 226" cx="0.267" cy="0.267" r="0.267" fill="#d7e6f0"/>
      </g>
      <g id="Group_464" data-name="Group 464" transform="translate(3.884 2.865)">
        <circle id="Ellipse_227" data-name="Ellipse 227" cx="0.267" cy="0.267" r="0.267" fill="#d7e6f0"/>
      </g>
      <g id="Group_465" data-name="Group 465" transform="translate(2.183 1.877)">
        <circle id="Ellipse_228" data-name="Ellipse 228" cx="0.267" cy="0.267" r="0.267" fill="#d7e6f0"/>
      </g>
      <g id="Group_466" data-name="Group 466" transform="translate(5.992 0.293)">
        <circle id="Ellipse_229" data-name="Ellipse 229" cx="0.267" cy="0.267" r="0.267" fill="#d7e6f0"/>
      </g>
      <g id="Group_467" data-name="Group 467" transform="translate(2.351 9.105)">
        <circle id="Ellipse_230" data-name="Ellipse 230" cx="0.267" cy="0.267" r="0.267" fill="#d7e6f0"/>
      </g>
      <g id="Group_468" data-name="Group 468" transform="translate(0 8.197)">
        <circle id="Ellipse_231" data-name="Ellipse 231" cx="0.267" cy="0.267" r="0.267" fill="#d7e6f0"/>
      </g>
      <g id="Group_469" data-name="Group 469" transform="translate(1.759 4.588)">
        <circle id="Ellipse_232" data-name="Ellipse 232" cx="0.267" cy="0.267" r="0.267" fill="#d7e6f0"/>
      </g>
      <g id="Group_470" data-name="Group 470" transform="translate(10.881 9.932)">
        <circle id="Ellipse_233" data-name="Ellipse 233" cx="0.267" cy="0.267" r="0.267" fill="#d7e6f0"/>
      </g>
      <g id="Group_471" data-name="Group 471" transform="translate(7.519 8.105)">
        <circle id="Ellipse_234" data-name="Ellipse 234" cx="0.267" cy="0.267" r="0.267" fill="#d7e6f0"/>
      </g>
      <g id="Group_472" data-name="Group 472" transform="translate(8.07 5.411)">
        <circle id="Ellipse_235" data-name="Ellipse 235" cx="0.267" cy="0.267" r="0.267" fill="#d7e6f0"/>
      </g>
      <g id="Group_473" data-name="Group 473" transform="translate(14.08 8.653)">
        <circle id="Ellipse_236" data-name="Ellipse 236" cx="0.267" cy="0.267" r="0.267" fill="#d7e6f0"/>
      </g>
      <g id="Group_474" data-name="Group 474" transform="translate(10.63 6.285)">
        <circle id="Ellipse_237" data-name="Ellipse 237" cx="0.267" cy="0.267" r="0.267" fill="#d7e6f0"/>
      </g>
      <g id="Group_475" data-name="Group 475" transform="translate(13.571 4.954)">
        <circle id="Ellipse_238" data-name="Ellipse 238" cx="0.267" cy="0.267" r="0.267" fill="#d7e6f0"/>
      </g>
      <g id="Group_476" data-name="Group 476" transform="translate(3.405 13.401)">
        <circle id="Ellipse_239" data-name="Ellipse 239" cx="0.267" cy="0.267" r="0.267" fill="#d7e6f0"/>
      </g>
      <g id="Group_477" data-name="Group 477" transform="translate(1.79 12.384)">
        <circle id="Ellipse_240" data-name="Ellipse 240" cx="0.267" cy="0.267" r="0.267" fill="#d7e6f0"/>
      </g>
      <g id="Group_478" data-name="Group 478" transform="translate(4.874 8.57)">
        <circle id="Ellipse_241" data-name="Ellipse 241" cx="0.267" cy="0.267" r="0.267" fill="#d7e6f0"/>
      </g>
      <g id="Group_479" data-name="Group 479" transform="translate(8.63 13.216)">
        <circle id="Ellipse_242" data-name="Ellipse 242" cx="0.267" cy="0.267" r="0.267" fill="#d7e6f0"/>
      </g>
      <g id="Group_480" data-name="Group 480" transform="translate(9.082 11.527)">
        <circle id="Ellipse_243" data-name="Ellipse 243" cx="0.267" cy="0.267" r="0.267" fill="#d7e6f0"/>
      </g>
      <g id="Group_481" data-name="Group 481" transform="translate(11.808 11.884)">
        <circle id="Ellipse_244" data-name="Ellipse 244" cx="0.267" cy="0.267" r="0.267" fill="#d7e6f0"/>
      </g>
    </g>
    <g id="Group_484" data-name="Group 484" transform="translate(27.2 28.267)">
      <path id="Path_1030" data-name="Path 1030" d="M234.478,200.657l-.5-.5a.534.534,0,0,0-.754,0l-.5.5a2.465,2.465,0,0,0,0,3.486l.5.5a.533.533,0,0,0,.754,0l.5-.5a2.465,2.465,0,0,0,0-3.486Z" transform="translate(-228.8 -200)" fill="#69a041"/>
      <path id="Path_1031" data-name="Path 1031" d="M260.643,249.223l-.5-.5a2.465,2.465,0,0,0-3.486,0l-.5.5a.533.533,0,0,0,0,.754l.5.5a2.465,2.465,0,0,0,3.486,0l.5-.5A.533.533,0,0,0,260.643,249.223Z" transform="translate(-251.199 -244.8)" fill="#4b8c41"/>
      <path id="Path_1032" data-name="Path 1032" d="M188.643,249.223l-.5-.5a2.465,2.465,0,0,0-3.486,0l-.5.5a.533.533,0,0,0,0,.754l.5.5a2.465,2.465,0,0,0,3.486,0l.5-.5A.533.533,0,0,0,188.643,249.223Z" transform="translate(-183.999 -244.8)" fill="#4b8c41"/>
      <g id="Group_483" data-name="Group 483" transform="translate(4.267 4.8)">
        <path id="Path_1033" data-name="Path 1033" d="M248.533,274.133A.533.533,0,0,1,248,273.6V272h1.067v1.6A.533.533,0,0,1,248.533,274.133Z" transform="translate(-248 -272)" fill="#4b8c41"/>
      </g>
    </g>
  </g>
</svg>
