<svg xmlns="http://www.w3.org/2000/svg" width="31" height="30.169" viewBox="0 0 31 30.169">
  <g id="_054-pizza" data-name="054-pizza" transform="translate(-29.941 -40)">
    <g id="Group_485" data-name="Group 485" transform="translate(30.079 40.549)">
      <path id="Path_1034" data-name="Path 1034" d="M47.324,48a30.583,30.583,0,0,0-15.361,4.11l0,.005,5.485,9.5v6.131a1.1,1.1,0,1,0,2.194,0v-.284a.549.549,0,0,1,1.1,0v6.866a1.1,1.1,0,1,0,2.194,0V73.164a.549.549,0,0,1,1.024-.274l2.4,4.164a1.118,1.118,0,0,0,.685.532,1.1,1.1,0,0,0,1.225-.514L62.683,52.115l0-.005A30.584,30.584,0,0,0,47.324,48Z" transform="translate(-31.963 -48)" fill="#ffd23c"/>
    </g>
    <g id="Group_486" data-name="Group 486" transform="translate(44.892 44.315)">
      <path id="Path_1035" data-name="Path 1035" d="M248.549,128.78a.549.549,0,0,1,0-1.1L262.683,103.2a.549.549,0,0,1,.95.549L249.5,128.231A1.1,1.1,0,0,1,248.549,128.78Z" transform="translate(-248 -102.925)" fill="#faa019"/>
    </g>
    <path id="Path_1036" data-name="Path 1036" d="M60.875,44.62a1.624,1.624,0,0,0-.806-.995,31.327,31.327,0,0,0-29.258,0,1.644,1.644,0,0,0-.649,2.274l.549.951a1.636,1.636,0,0,0,2.188.635,26.931,26.931,0,0,1,25.081,0,1.637,1.637,0,0,0,2.189-.636l.549-.951A1.634,1.634,0,0,0,60.875,44.62Z" transform="translate(0)" fill="#f57828"/>
    <path id="Path_1037" data-name="Path 1037" d="M60.88,44.606a1.624,1.624,0,0,0-.8-.981,31.327,31.327,0,0,0-29.258,0,1.643,1.643,0,0,0-.662,2.25l.271.488.483-.279a29.106,29.106,0,0,1,29.073,0l.483.279.271-.488A1.636,1.636,0,0,0,60.88,44.606Z" transform="translate(-0.009)" fill="#faa019"/>
    <g id="Group_489" data-name="Group 489" transform="translate(35.567 47.131)">
      <g id="Group_487" data-name="Group 487" transform="translate(0 0)">
        <circle id="Ellipse_245" data-name="Ellipse 245" cx="3.291" cy="3.291" r="3.291" fill="#f04b37"/>
      </g>
      <g id="Group_488" data-name="Group 488" transform="translate(2.743 2.743)">
        <path id="Path_1038" data-name="Path 1038" d="M152.549,187.84a.549.549,0,0,1,0-1.1,2.2,2.2,0,0,0,2.194-2.194.549.549,0,0,1,1.1,0A3.3,3.3,0,0,1,152.549,187.84Z" transform="translate(-152 -184)" fill="#e1322d"/>
      </g>
    </g>
    <g id="Group_492" data-name="Group 492" transform="translate(47.635 47.131)">
      <g id="Group_490" data-name="Group 490" transform="translate(0 0)">
        <circle id="Ellipse_246" data-name="Ellipse 246" cx="3.291" cy="3.291" r="3.291" fill="#f04b37"/>
      </g>
      <g id="Group_491" data-name="Group 491" transform="translate(2.743 2.743)">
        <path id="Path_1039" data-name="Path 1039" d="M328.548,187.84a.549.549,0,0,1,0-1.1,2.2,2.2,0,0,0,2.194-2.194.549.549,0,0,1,1.1,0A3.3,3.3,0,0,1,328.548,187.84Z" transform="translate(-328 -184)" fill="#e1322d"/>
      </g>
    </g>
    <g id="Group_495" data-name="Group 495" transform="translate(42.149 54.81)">
      <g id="Group_493" data-name="Group 493" transform="translate(0 0)">
        <circle id="Ellipse_247" data-name="Ellipse 247" cx="3.291" cy="3.291" r="3.291" fill="#f04b37"/>
      </g>
      <g id="Group_494" data-name="Group 494" transform="translate(2.743 2.743)">
        <path id="Path_1040" data-name="Path 1040" d="M248.549,299.84a.549.549,0,0,1,0-1.1,2.2,2.2,0,0,0,2.194-2.194.549.549,0,0,1,1.1,0A3.3,3.3,0,0,1,248.549,299.84Z" transform="translate(-248 -296)" fill="#e1322d"/>
      </g>
    </g>
    <g id="Group_496" data-name="Group 496" transform="translate(42.698 45.485)">
      <path id="Path_1041" data-name="Path 1041" d="M216.549,123.84a.549.549,0,0,1,0-1.1,2.2,2.2,0,0,0,2.194-2.194.549.549,0,1,1,1.1,0A3.3,3.3,0,0,1,216.549,123.84Z" transform="translate(-216 -120)" fill="#5faa46"/>
    </g>
    <g id="Group_497" data-name="Group 497" transform="translate(39.955 53.713)">
      <path id="Path_1042" data-name="Path 1042" d="M176.549,243.84a.549.549,0,0,1-.549-.549A3.3,3.3,0,0,1,179.291,240a.549.549,0,1,1,0,1.1,2.2,2.2,0,0,0-2.194,2.194A.549.549,0,0,1,176.549,243.84Z" transform="translate(-176 -240)" fill="#5faa46"/>
    </g>
    <g id="Group_498" data-name="Group 498" transform="translate(47.635 54.262)">
      <path id="Path_1043" data-name="Path 1043" d="M291.291,251.84a.549.549,0,0,1-.549-.549,2.2,2.2,0,0,0-2.194-2.194.549.549,0,0,1,0-1.1,3.3,3.3,0,0,1,3.291,3.291A.549.549,0,0,1,291.291,251.84Z" transform="translate(-288 -248)" fill="#5faa46"/>
    </g>
    <g id="Group_499" data-name="Group 499" transform="translate(41.601 63.587)">
      <path id="Path_1044" data-name="Path 1044" d="M203.291,387.84a.549.549,0,0,1-.549-.549,2.2,2.2,0,0,0-2.194-2.194.549.549,0,1,1,0-1.1,3.3,3.3,0,0,1,3.291,3.291A.549.549,0,0,1,203.291,387.84Z" transform="translate(-200 -384)" fill="#5faa46"/>
    </g>
    <g id="Group_500" data-name="Group 500" transform="translate(43.795 49.873)">
      <path id="Path_1045" data-name="Path 1045" d="M233.646,187.291a1.646,1.646,0,1,1,1.646-1.646A1.647,1.647,0,0,1,233.646,187.291Zm0-2.194a.549.549,0,1,0,.549.549A.549.549,0,0,0,233.646,185.1Z" transform="translate(-232 -184)" fill="#555a6e"/>
    </g>
    <g id="Group_501" data-name="Group 501" transform="translate(36.116 54.262)">
      <path id="Path_1046" data-name="Path 1046" d="M121.646,251.291a1.646,1.646,0,1,1,1.646-1.646A1.647,1.647,0,0,1,121.646,251.291Zm0-2.194a.549.549,0,1,0,.549.549A.549.549,0,0,0,121.646,249.1Z" transform="translate(-120 -248)" fill="#555a6e"/>
    </g>
    <g id="Group_502" data-name="Group 502" transform="translate(44.892 61.758)">
      <path id="Path_1047" data-name="Path 1047" d="M249.646,360.624a1.646,1.646,0,1,1,1.646-1.646A1.647,1.647,0,0,1,249.646,360.624Zm0-2.194a.549.549,0,1,0,.549.549A.549.549,0,0,0,249.646,358.43Z" transform="translate(-248 -357.333)" fill="#555a6e"/>
    </g>
    <g id="Group_503" data-name="Group 503" transform="translate(33.373 48.228)">
      <circle id="Ellipse_248" data-name="Ellipse 248" cx="0.549" cy="0.549" r="0.549" transform="translate(0 0)" fill="#ffff50"/>
    </g>
    <g id="Group_504" data-name="Group 504" transform="translate(47.635 46.034)">
      <circle id="Ellipse_249" data-name="Ellipse 249" cx="0.274" cy="0.274" r="0.274" transform="translate(0 0)" fill="#ffff50"/>
    </g>
    <g id="Group_505" data-name="Group 505" transform="translate(41.601 45.485)">
      <circle id="Ellipse_250" data-name="Ellipse 250" cx="0.823" cy="0.823" r="0.823" transform="translate(0 0)" fill="#ffff50"/>
    </g>
    <g id="Group_506" data-name="Group 506" transform="translate(40.504 60.844)">
      <circle id="Ellipse_251" data-name="Ellipse 251" cx="0.549" cy="0.549" r="0.549" fill="#ffff50"/>
    </g>
    <g id="Group_507" data-name="Group 507" transform="translate(49.28 59.198)">
      <circle id="Ellipse_252" data-name="Ellipse 252" cx="0.274" cy="0.274" r="0.274" transform="translate(0 0)" fill="#ffff50"/>
    </g>
    <g id="Group_508" data-name="Group 508" transform="translate(54.765 48.228)">
      <circle id="Ellipse_253" data-name="Ellipse 253" cx="0.823" cy="0.823" r="0.823" transform="translate(0 0)" fill="#ffff50"/>
    </g>
  </g>
</svg>
